<svg width="200" height="48" viewBox="0 0 200 48" fill="none" xmlns="http://www.w3.org/2000/svg">
<g clip-path="url(#clip0_2_141)">
<path fill-rule="evenodd" clip-rule="evenodd" d="M114.581 34.4348C107.807 39.4432 97.9548 42.1116 89.4569 42.1116C77.5516 42.1116 66.8779 37.719 58.7495 30.4116C58.1337 29.8368 58.6674 29.0569 59.4474 29.5084C68.1916 34.599 78.9884 37.6369 90.1547 37.6369C97.6674 37.6369 105.96 36.0768 113.596 32.8337C114.745 32.3821 115.689 33.6137 114.581 34.4348Z" fill="#727275"/>
<path fill-rule="evenodd" clip-rule="evenodd" d="M117.414 31.1916C116.552 30.0832 111.666 30.6579 109.491 30.9453C108.834 31.0274 108.711 30.4526 109.326 30.0421C113.226 27.2916 119.589 28.1126 120.328 29.0158C121.067 29.919 120.123 36.3232 116.469 39.3611C115.895 39.8126 115.361 39.5663 115.607 38.9505C116.428 36.8979 118.276 32.3411 117.414 31.1916Z" fill="#727275"/>
<path fill-rule="evenodd" clip-rule="evenodd" d="M109.614 10.7474V8.07896C109.614 7.66843 109.901 7.42211 110.271 7.42211H122.176C122.545 7.42211 122.874 7.70949 122.874 8.07896V10.3369C122.874 10.7063 122.545 11.199 121.971 12.02L115.813 20.8053C118.112 20.7642 120.534 21.0926 122.586 22.2421C123.038 22.4884 123.161 22.899 123.202 23.2684V26.1011C123.202 26.5116 122.792 26.9632 122.34 26.7168C118.686 24.7874 113.801 24.5821 109.778 26.7579C109.367 26.9632 108.916 26.5526 108.916 26.1421V23.4326C108.916 23.0221 108.916 22.2832 109.367 21.6263L116.511 11.4042H110.312C109.942 11.4042 109.614 11.1169 109.614 10.7474ZM66.2211 27.2916H62.6084C62.28 27.2505 61.9926 27.0042 61.9516 26.6758V8.12001C61.9516 7.75054 62.28 7.46317 62.6495 7.46317H66.0158C66.3853 7.46317 66.6316 7.75054 66.6726 8.07896V10.5011H66.7547C67.6168 8.16106 69.3 7.05264 71.5168 7.05264C73.7747 7.05264 75.2116 8.16106 76.1968 10.5011C77.0589 8.16106 79.0705 7.05264 81.2053 7.05264C82.7242 7.05264 84.3663 7.66843 85.3926 9.10527C86.5421 10.6653 86.2958 12.9232 86.2958 14.9348V26.6758C86.2958 27.0453 85.9674 27.3326 85.5979 27.3326H82.0263C81.6568 27.2916 81.3695 27.0042 81.3695 26.6758V16.8232C81.3695 16.0432 81.4516 14.0726 81.2874 13.3337C81 12.1021 80.22 11.7326 79.1526 11.7326C78.2905 11.7326 77.3463 12.3074 76.9768 13.2516C76.6074 14.1958 76.6484 15.7558 76.6484 16.8232V26.6758C76.6484 27.0453 76.32 27.3326 75.9505 27.3326H72.3379C71.9684 27.2916 71.6811 27.0042 71.6811 26.6758V16.8232C71.6811 14.7705 72.0095 11.6916 69.4642 11.6916C66.8779 11.6916 66.96 14.6474 66.96 16.8232V26.6758C66.9189 27.0042 66.6316 27.2916 66.2211 27.2916ZM133.137 7.05264C138.515 7.05264 141.429 11.6505 141.429 17.5211C141.429 23.1863 138.227 27.7021 133.137 27.7021C127.882 27.7021 125.008 23.1042 125.008 17.3569C124.967 11.5684 127.882 7.05264 133.137 7.05264ZM133.137 10.8705C130.468 10.8705 130.304 14.5242 130.304 16.7821C130.304 19.04 130.263 23.8842 133.096 23.8842C135.887 23.8842 136.052 19.9842 136.052 17.6032C136.052 16.0432 135.969 14.1548 135.518 12.6769C135.107 11.3632 134.286 10.8705 133.137 10.8705ZM148.367 27.2916H144.755C144.385 27.2505 144.098 26.9632 144.098 26.6347V8.0379C144.139 7.70948 144.426 7.42211 144.796 7.42211H148.162C148.491 7.42211 148.737 7.66844 148.819 7.95581V10.7884H148.901C149.927 8.24317 151.323 7.05264 153.827 7.05264C155.428 7.05264 157.029 7.62737 158.056 9.22843C159 10.7063 159 13.2105 159 15.0168V26.7168C158.959 27.0453 158.672 27.2916 158.302 27.2916H154.689C154.361 27.2505 154.074 27.0042 154.033 26.7168V16.6179C154.033 14.5653 154.279 11.6095 151.775 11.6095C150.913 11.6095 150.092 12.1842 149.681 13.0874C149.188 14.2369 149.106 15.3453 149.106 16.6179V26.6347C149.065 27.0042 148.737 27.2916 148.367 27.2916ZM100.131 18.4242C100.131 19.82 100.172 21.0105 99.4737 22.2832C98.8989 23.3095 97.9958 23.9253 96.9695 23.9253C95.5737 23.9253 94.7526 22.8579 94.7526 21.2979C94.7526 18.219 97.5032 17.6442 100.131 17.6442V18.4242ZM103.784 27.2505C103.538 27.4558 103.209 27.4968 102.922 27.3326C101.732 26.3474 101.485 25.8547 100.828 24.9105C98.8579 26.9221 97.421 27.5379 94.8758 27.5379C91.8379 27.5379 89.4568 25.6495 89.4568 21.9137C89.4568 18.9579 91.0579 16.9874 93.3158 16.0021C95.2863 15.14 98.0368 14.9758 100.131 14.7295V14.2779C100.131 13.4158 100.213 12.3895 99.6789 11.6505C99.2274 10.9937 98.4063 10.7063 97.6674 10.7063C96.2716 10.7063 95.04 11.4042 94.7526 12.8821C94.6705 13.2105 94.4653 13.539 94.1368 13.539L90.6474 13.1695C90.36 13.0874 90.0316 12.8821 90.1137 12.4305C90.9347 8.16107 94.7526 6.88844 98.201 6.88844C99.9663 6.88844 102.265 7.34001 103.661 8.69475C105.426 10.3369 105.262 12.5537 105.262 14.9348V20.559C105.262 22.2421 105.96 22.9811 106.617 23.9253C106.863 24.2537 106.904 24.6642 106.617 24.8695C105.837 25.4853 104.523 26.6347 103.784 27.2505ZM52.7147 18.4242C52.7147 19.82 52.7558 21.0105 52.0579 22.2832C51.4832 23.3095 50.58 23.9253 49.5537 23.9253C48.1579 23.9253 47.3368 22.8579 47.3368 21.2979C47.3368 18.219 50.0874 17.6442 52.7147 17.6442V18.4242ZM56.3274 27.2505C56.081 27.4558 55.7526 27.4968 55.4653 27.3326C54.2747 26.3474 54.0284 25.8547 53.3716 24.9105C51.4011 26.9221 49.9642 27.5379 47.4189 27.5379C44.3811 27.5379 42 25.6495 42 21.9137C42 18.9579 43.6011 16.9874 45.8589 16.0021C47.8295 15.14 50.58 14.9758 52.6737 14.7295V14.2779C52.6737 13.4158 52.7558 12.3895 52.2221 11.6505C51.7705 10.9937 50.9495 10.7063 50.2105 10.7063C48.8147 10.7063 47.5832 11.4042 47.2958 12.8821C47.2137 13.2105 47.0084 13.539 46.68 13.539L43.1905 13.1695C42.9032 13.0874 42.5747 12.8821 42.6568 12.4305C43.4779 8.16107 47.2958 6.88844 50.7442 6.88844C52.5095 6.88844 54.8084 7.34001 56.2042 8.69475C57.9695 10.3369 57.8053 12.5537 57.8053 14.9348V20.559C57.8053 22.2421 58.5032 22.9811 59.16 23.9253C59.4063 24.2537 59.4474 24.6642 59.16 24.8695C58.38 25.4853 57.0663 26.6347 56.3274 27.2505Z" fill="#727275"/>
</g>
<defs>
<clipPath id="clip0_2_141">
<rect width="200" height="48" fill="white"/>
</clipPath>
</defs>
</svg>
