<svg width="200" height="48" viewBox="0 0 200 48" fill="none" xmlns="http://www.w3.org/2000/svg">
<g clip-path="url(#clip0_2_143)">
<path d="M54.6219 11.3164C57.0636 11.7393 59.3991 12.482 61.5833 13.504C65.4024 19.2072 67.3 25.6397 66.5993 33.0588C63.6773 35.2436 60.8428 36.5691 58.0562 37.4366C57.3661 36.4906 56.7557 35.4822 56.2276 34.425C57.2334 34.0428 58.1995 33.5711 59.1124 33.0209C58.8736 32.842 58.6374 32.6549 58.4065 32.4624C52.9207 35.0593 46.8882 35.0593 41.3361 32.4624C41.1079 32.6549 40.8717 32.842 40.6302 33.0209C41.5405 33.5684 42.5038 34.0401 43.5097 34.4223C42.9816 35.4822 42.3685 36.4878 41.6811 37.4339C38.8971 36.5665 36.0653 35.2409 33.1433 33.0588C32.5461 26.6589 33.7404 20.1668 38.146 13.5094C40.3303 12.4847 42.6684 11.7393 45.1127 11.3164C45.4153 11.8586 45.7736 12.5878 46.0151 13.1678C48.5629 12.7775 51.1346 12.7775 53.7302 13.1678C53.9717 12.5878 54.322 11.8586 54.6219 11.3164ZM121.577 19.6712C123.434 19.6712 124.976 20.0697 126.203 20.8666V24.3391C125.77 24.0354 125.266 23.7888 124.69 23.599C124.114 23.4093 123.498 23.3144 122.84 23.3144C121.688 23.3144 120.789 23.5285 120.138 23.9595C119.488 24.3905 119.162 24.9517 119.162 25.6483C119.162 26.3314 119.477 26.8898 120.109 27.3289C120.741 27.7654 121.656 27.9849 122.858 27.9849C123.477 27.9849 124.087 27.8927 124.69 27.7111C125.29 27.5268 125.807 27.3018 126.24 27.0362V30.3947C124.878 31.2296 123.299 31.647 121.502 31.647C119.99 31.6416 118.7 31.376 117.635 30.8447C116.572 30.3134 115.767 29.5924 115.231 28.6816C114.695 27.7708 114.424 26.7461 114.424 25.6076C114.424 24.4692 114.703 23.45 115.26 22.5527C115.818 21.6555 116.635 20.9507 117.713 20.4384C118.79 19.9261 120.077 19.6712 121.577 19.6712ZM107.624 19.6687C108.664 19.6687 109.617 19.7825 110.485 20.0102C111.353 20.2379 112.07 20.5279 112.64 20.883V23.8621C112.056 23.507 111.387 23.2278 110.623 23.0163C109.861 22.8076 109.079 22.7046 108.272 22.7046C107.107 22.7046 106.526 22.9079 106.526 23.3118C106.526 23.5016 106.616 23.6425 106.796 23.7374C106.977 23.8323 107.308 23.9298 107.789 24.0329L109.646 24.3744C110.86 24.5886 111.764 24.9653 112.359 25.502C112.954 26.0388 113.25 26.833 113.25 27.8847C113.25 29.0368 112.76 29.9503 111.775 30.628C110.79 31.3056 109.394 31.6444 107.584 31.6444C106.52 31.6418 105.485 31.5089 104.482 31.2433C103.479 30.9776 102.574 30.5927 101.77 30.0858V26.936C102.377 27.4158 103.192 27.8116 104.214 28.1233C105.236 28.4323 106.223 28.5868 107.178 28.5868C107.624 28.5868 107.961 28.5272 108.189 28.4079C108.418 28.2886 108.532 28.145 108.532 27.9796C108.532 27.7899 108.471 27.6327 108.346 27.5052C108.221 27.3778 107.98 27.2721 107.622 27.1826L105.392 26.6703C104.116 26.3668 103.211 25.9466 102.672 25.4072C102.133 24.8704 101.865 24.1657 101.865 23.2928C101.865 22.5582 102.099 21.9212 102.571 21.3764C103.041 20.8315 103.71 20.4114 104.577 20.1159C105.446 19.8177 106.459 19.6687 107.624 19.6687ZM168 17.6004V31.2622H163.448V28.7766C163.063 29.7117 162.48 30.4247 161.694 30.9126C160.908 31.3978 159.937 31.6418 158.785 31.6418C157.756 31.6418 156.859 31.3869 156.091 30.8746C155.324 30.3623 154.733 29.6603 154.316 28.7684C153.902 27.8766 153.692 26.8683 153.692 25.7406C153.679 24.5777 153.899 23.5341 154.353 22.6097C154.805 21.6854 155.444 20.9644 156.267 20.4466C157.09 19.9289 158.029 19.6687 159.083 19.6687C161.214 19.6687 162.655 20.598 163.409 22.4543L163.448 22.5525L163.448 17.6004H168ZM134.637 19.6659C136.11 19.6659 137.381 19.918 138.445 20.4249C139.51 20.9318 140.322 21.6258 140.879 22.5122C141.437 23.3986 141.715 24.4151 141.715 25.5671C141.715 26.7056 141.437 27.7357 140.879 28.66C140.322 29.5843 139.507 30.3108 138.435 30.8421C137.362 31.3734 136.096 31.639 134.634 31.639C133.172 31.639 131.906 31.3761 130.836 30.8448C129.764 30.3135 128.947 29.587 128.384 28.6627C127.822 27.7383 127.538 26.7083 127.538 25.5698C127.538 24.4313 127.819 23.4148 128.384 22.523C128.949 21.6312 129.761 20.9318 130.829 20.4249C131.892 19.918 133.164 19.6659 134.637 19.6659ZM99.7373 22.7777V31.3218H95.1992V22.7777C96.5897 23.3903 98.3149 23.4174 99.7373 22.7777ZM151.187 19.9153C151.842 19.9153 152.405 20.0671 152.878 20.3707V24.4692C152.405 24.1521 151.795 23.9948 151.039 23.9948C150.048 23.9948 149.284 24.3012 148.753 24.9138C148.22 25.5264 147.954 26.4805 147.954 27.7708V31.2622H143.403V20.162H147.862V23.6913C148.108 22.401 148.509 21.4495 149.061 20.8342C149.611 20.2216 150.322 19.9153 151.187 19.9153ZM85.588 17.9799C87.3346 17.9799 88.8101 18.2591 90.0206 18.8148C91.2278 19.3704 92.133 20.1457 92.733 21.1378C93.3324 22.1299 93.6349 23.2657 93.6349 24.5451C93.6349 25.7975 93.3218 26.9332 92.6955 27.9497C92.0692 28.9689 91.1164 29.774 89.8347 30.3677C88.5529 30.9613 86.9655 31.2595 85.0681 31.2595H78.3429V17.9799H85.588ZM44.2661 22.2188C42.5702 22.2188 41.2326 23.7774 41.2326 25.6722C41.2326 27.567 42.5994 29.1229 44.2661 29.1229C45.962 29.1229 47.3022 27.567 47.2996 25.6722C47.3288 23.7747 45.962 22.2188 44.2661 22.2188ZM55.4765 22.2188C53.7806 22.2188 52.443 23.7774 52.443 25.6722C52.443 27.567 53.8098 29.1229 55.4765 29.1229C57.1724 29.1229 58.51 27.567 58.51 25.6722C58.5392 23.7747 57.1724 22.2188 55.4765 22.2188ZM134.634 23.1627C133.841 23.1627 133.219 23.3877 132.766 23.8377C132.315 24.2877 132.089 24.8894 132.089 25.6484C132.089 26.4074 132.315 27.0173 132.766 27.4781C133.217 27.9389 133.841 28.1721 134.634 28.1721C135.414 28.1693 136.03 27.9389 136.481 27.4781C136.933 27.0173 137.161 26.4074 137.161 25.6484C137.161 24.8894 136.935 24.2849 136.481 23.8377C136.03 23.3877 135.414 23.1627 134.634 23.1627ZM160.94 23.2197C160.173 23.2197 159.56 23.4446 159.101 23.8946C158.642 24.3446 158.414 24.9274 158.414 25.6484C158.414 26.3695 158.642 26.9577 159.101 27.4131C159.56 27.8685 160.165 28.0962 160.922 28.0962C161.689 28.0935 162.304 27.863 162.769 27.4023C163.233 26.9414 163.464 26.3424 163.464 25.6105C163.464 24.903 163.239 24.3256 162.788 23.8838C162.336 23.442 161.718 23.2197 160.94 23.2197ZM85.2564 21.3574H82.9899V27.8847H84.9937C86.1695 27.8847 87.0747 27.5838 87.706 26.9847C88.3379 26.383 88.6538 25.5643 88.6538 24.5262C88.6538 23.5638 88.3721 22.7967 87.8096 22.222C87.2472 21.6474 86.3952 21.3574 85.2564 21.3574ZM97.4703 17.1801C98.7234 17.1801 99.7396 18.1122 99.7396 19.2619C99.7396 20.4116 98.7234 21.3437 97.4703 21.3437C96.2168 21.3437 95.2011 20.4116 95.2011 19.2619C95.2011 18.1122 96.2168 17.1801 97.4703 17.1801Z" fill="#727275"/>
</g>
<defs>
<clipPath id="clip0_2_143">
<rect width="200" height="48" fill="white"/>
</clipPath>
</defs>
</svg>
