<svg width="200" height="48" viewBox="0 0 200 48" fill="none" xmlns="http://www.w3.org/2000/svg">
<g clip-path="url(#clip0_2_134)">
<g clip-path="url(#clip1_2_134)">
<path d="M43.5746 15.5559C41.9916 15.5559 41.5166 16.2525 41.5166 17.8038V20.3683H45.7591L45.3476 24.5475H41.5166V37.18H36.4193V24.5475H33V20.4H36.4193V17.8988C36.4193 13.6563 38.129 11.4401 42.8464 11.4401C43.8279 11.4401 44.841 11.5034 45.8225 11.63V15.5559" fill="#727275"/>
<path d="M46.1074 28.2518C46.1074 23.566 48.3236 20.0201 53.0094 20.0201C55.5422 20.0201 57.0936 21.3181 57.8534 22.9645V20.4H62.7291V37.2117H57.8218V34.6788C57.1252 36.2935 55.5106 37.5599 52.9777 37.5599C48.3236 37.5599 46.0757 34.0456 46.0757 29.3282M51.2047 29.3915C51.2047 31.8927 52.1229 33.5707 54.4974 33.5707C56.587 33.5707 57.6318 32.051 57.6318 29.6448V27.9352C57.6318 25.529 56.5553 24.0093 54.4974 24.0093C52.1229 24.0093 51.2047 25.6556 51.2047 28.1884V29.3915Z" fill="#727275"/>
<path d="M73.3037 20.0201C75.2667 20.0201 77.1663 20.4316 78.1794 21.1598L77.0396 24.7691C75.9948 24.2625 74.8234 24.0093 73.652 24.0093C70.8975 24.0093 69.6944 25.5923 69.6944 28.3151V29.2966C69.6944 32.0193 70.8975 33.6024 73.652 33.6024C74.8234 33.6024 75.9948 33.3174 77.0396 32.8109L78.1794 36.4201C77.1663 37.1167 75.2983 37.5599 73.3037 37.5599C67.3199 37.5599 64.6288 34.3622 64.6288 29.2016V28.4101C64.6288 23.2494 67.3199 20.0201 73.3037 20.0201Z" fill="#727275"/>
<path d="M78.8443 29.4232V27.9352C78.8443 23.1544 81.5671 20.0201 87.1076 20.0201C92.3316 20.0201 94.6428 23.1861 94.6428 27.8718V30.563H83.9416C84.0366 32.8742 85.0814 33.8873 87.8992 33.8873C89.7355 33.8873 91.5718 33.539 93.3131 32.8742L94.2312 36.3568C92.9015 37.0534 90.147 37.5916 87.7092 37.5916C81.2505 37.5599 78.8443 34.3622 78.8443 29.4232ZM83.9416 27.207H90.0837V26.7954C90.0837 24.9591 89.3555 23.5027 87.1076 23.5027C84.8281 23.5027 83.9416 24.9591 83.9416 27.207Z" fill="#727275"/>
<path d="M113.512 29.3282C113.512 34.014 111.265 37.5599 106.579 37.5599C104.046 37.5599 102.273 36.2935 101.576 34.6788V37.2117H96.7641V11.9466L101.861 11.5034V22.7428C102.59 21.2548 104.236 20.0517 106.61 20.0517C111.265 20.0517 113.544 23.566 113.544 28.2834M108.415 28.1568C108.415 25.7822 107.497 24.0093 105.059 24.0093C102.97 24.0093 101.861 25.4973 101.861 27.9035V29.6765C101.861 32.0827 103.001 33.5707 105.059 33.5707C107.497 33.5707 108.415 31.7977 108.415 29.4232V28.1568Z" fill="#727275"/>
<path d="M115.19 29.2016V28.3467C115.19 23.5027 117.945 20.0201 123.549 20.0201C129.153 20.0201 131.907 23.5027 131.907 28.3467V29.2016C131.907 34.0456 129.153 37.5283 123.549 37.5283C117.945 37.5283 115.19 34.0773 115.19 29.2016ZM126.841 27.9985C126.841 25.7822 125.923 24.0093 123.549 24.0093C121.174 24.0093 120.256 25.7822 120.256 27.9985V29.5815C120.256 31.7977 121.174 33.5707 123.549 33.5707C125.923 33.5707 126.841 31.7977 126.841 29.5815V27.9985Z" fill="#727275"/>
<path d="M133.648 29.2016V28.3467C133.648 23.5027 136.403 20.0201 142.007 20.0201C147.611 20.0201 150.365 23.5027 150.365 28.3467V29.2016C150.365 34.0456 147.611 37.5283 142.007 37.5283C136.403 37.5283 133.648 34.0773 133.648 29.2016ZM145.299 27.9985C145.299 25.7822 144.381 24.0093 142.007 24.0093C139.632 24.0093 138.714 25.7822 138.714 27.9985V29.5815C138.714 31.7977 139.632 33.5707 142.007 33.5707C144.381 33.5707 145.299 31.7977 145.299 29.5815V27.9985Z" fill="#727275"/>
<path d="M157.362 28.4101L162.396 20.3683H167.778L162.523 28.695L168 37.2117H162.586L157.362 28.9799V37.2117H152.296V11.9466L157.362 11.4717" fill="#727275"/>
</g>
</g>
<defs>
<clipPath id="clip0_2_134">
<rect width="200" height="48" fill="white"/>
</clipPath>
<clipPath id="clip1_2_134">
<rect width="135" height="135" fill="white" transform="translate(33 -43)"/>
</clipPath>
</defs>
</svg>
