<svg width="200" height="48" viewBox="0 0 200 48" fill="none" xmlns="http://www.w3.org/2000/svg">
<g clip-path="url(#clip0_2_145)">
<path d="M59.865 23.112H48.6726C48.3858 23.112 48.1495 23.3441 48.1495 23.6352V29.1027C48.1495 29.3937 48.3815 29.6258 48.6726 29.6258H53.039V36.4264C53.039 36.4264 52.0603 36.7555 49.3519 36.7555C46.154 36.7555 41.6864 35.5827 41.6864 25.7698C41.6864 15.9486 46.3354 14.6577 50.7019 14.6577C54.4819 14.6577 56.1103 15.32 57.1439 15.6448C57.4687 15.7461 57.764 15.4213 57.764 15.1302L59.0128 9.84406C59.0128 9.70906 58.9664 9.54453 58.8145 9.43484C58.3926 9.13953 55.8276 7.70094 49.3434 7.70094C41.872 7.70094 34.2065 10.8777 34.2065 26.158C34.2065 41.4383 42.9773 43.708 50.3728 43.708C56.4942 43.708 60.2109 41.0923 60.2109 41.0923C60.3628 41.008 60.3797 40.797 60.3797 40.7V23.6352C60.3754 23.3441 60.1434 23.112 59.8565 23.112H59.865ZM116.46 9.00453H110.161C109.87 9.00453 109.638 9.24078 109.638 9.52766V21.703H99.8165V9.52766C99.8165 9.23656 99.5803 9.00453 99.2976 9.00453H92.9948C92.7122 9.00453 92.4801 9.24078 92.4801 9.52766V42.493C92.4801 42.7841 92.7122 43.0203 92.9948 43.0203H99.2976C99.5845 43.0203 99.8165 42.7841 99.8165 42.493V28.3939H109.638L109.617 42.493C109.617 42.7841 109.849 43.0161 110.131 43.0161H116.434C116.725 43.0161 116.949 42.7798 116.949 42.493L116.97 9.52344C116.974 9.23234 116.738 9.00031 116.455 9.00031L116.46 9.00453ZM67.3912 9.75125C65.1469 9.75125 63.3286 11.5864 63.3286 13.8519C63.3286 16.1173 65.1469 17.9567 67.3912 17.9567C69.6356 17.9567 71.4539 16.1216 71.4539 13.8519C71.4539 11.5864 69.6356 9.75125 67.3912 9.75125ZM71.0067 20.3277C71.0067 20.0408 70.7747 19.8003 70.492 19.8003H64.2103C63.915 19.8003 63.6661 20.0956 63.6661 20.3867C63.6661 20.3867 63.6661 38.7003 63.6661 42.1892C63.6661 42.8263 64.0626 43.0203 64.5815 43.0203C64.5815 43.0203 67.2604 43.0203 70.2431 43.0203C70.859 43.0203 71.0236 42.7166 71.0236 42.1766C71.0194 41.008 71.0194 36.4306 71.0194 35.5447C71.0151 34.7009 71.0151 20.3277 71.0151 20.3277H71.0067ZM140.848 19.8509H134.596C134.309 19.8509 134.081 20.0872 134.081 20.3783V36.5403C134.081 36.5403 132.495 37.7089 130.234 37.7089C127.981 37.7089 127.378 36.688 127.378 34.4731C127.378 32.2667 127.378 20.3741 127.378 20.3741C127.378 20.083 127.141 19.8467 126.859 19.8467H120.518C120.227 19.8467 119.999 20.083 119.999 20.3741C119.999 20.3741 119.999 28.9803 119.999 35.5405C119.999 42.1006 123.652 43.7037 128.677 43.7037C132.799 43.7037 136.132 41.4256 136.132 41.4256C136.132 41.4256 136.288 42.6238 136.364 42.763C136.431 42.9064 136.617 43.0498 136.819 43.0498H140.835C141.122 43.0498 141.354 42.8136 141.354 42.5225L141.371 20.3741C141.359 20.0872 141.122 19.8509 140.84 19.8509H140.848ZM157.968 19.1084C154.416 19.1084 152.002 20.6947 152.002 20.6947V9.53187C152.002 9.24078 151.766 9.00875 151.488 9.00875H145.164C144.881 9.00875 144.649 9.245 144.649 9.53187L144.632 42.5014C144.632 42.7925 144.869 43.0245 145.151 43.0245C145.151 43.0245 149.551 43.0245 149.556 43.0245C149.75 43.0245 149.897 42.9233 150.011 42.7461C150.125 42.5689 150.277 41.2231 150.277 41.2231C150.277 41.2231 152.855 43.6742 157.748 43.6742C163.494 43.6742 166.785 40.7591 166.785 30.5919C166.785 20.4373 161.52 19.1084 157.968 19.1084ZM155.504 37.6878C153.336 37.6203 151.867 36.6373 151.867 36.6373V26.1917C151.867 26.1917 153.319 25.3016 155.103 25.1413C157.356 24.943 159.533 25.6222 159.533 30.9927C159.52 36.6542 158.542 37.7722 155.508 37.6836L155.504 37.6878ZM89.2106 37.5655C88.9322 37.5655 88.2276 37.6752 87.502 37.6752C85.1859 37.6752 84.3928 36.5952 84.3928 35.1987C84.3928 33.7981 84.3928 25.9259 84.3928 25.9259H89.122C89.4131 25.9259 89.6409 25.6939 89.6409 25.3986V20.3192C89.6451 20.0281 89.4131 19.7919 89.122 19.7919H84.3928L84.3844 13.5481C84.3844 13.3119 84.2578 13.1937 83.9878 13.1937H77.55C77.3011 13.1937 77.1619 13.3034 77.1619 13.5439V19.9944C77.1619 19.9944 73.9345 20.7748 73.7151 20.8381C73.4958 20.9014 73.3439 21.1039 73.3439 21.3402V25.3986C73.3439 25.6897 73.5801 25.9259 73.8628 25.9259H77.1619C77.1619 25.9259 77.1619 30.1658 77.1619 35.6797C77.1619 42.9233 82.2454 43.6362 85.6753 43.6362C87.2404 43.6362 89.1136 43.1258 89.4258 43.0161C89.6156 42.9486 89.7211 42.7545 89.7211 42.5478L89.7253 38.0886C89.7253 37.7975 89.4806 37.5655 89.2106 37.5655Z" fill="#727275"/>
</g>
<defs>
<clipPath id="clip0_2_145">
<rect width="200" height="48" fill="white"/>
</clipPath>
</defs>
</svg>
