<svg width="200" height="48" viewBox="0 0 200 48" fill="none" xmlns="http://www.w3.org/2000/svg">
<g clip-path="url(#clip0_2_147)">
<path d="M42.7824 38.3535H48.6582V24.0839L40.2643 17.7884V35.8353C40.2643 37.2287 41.3933 38.3535 42.7824 38.3535Z" fill="#727275"/>
<path d="M68.8036 38.3535H74.6793C76.0727 38.3535 77.1975 37.2245 77.1975 35.8353V17.7884L68.8036 24.0839" fill="#727275"/>
<path d="M68.8036 13.1718V24.0839L77.1975 17.7884V14.4309C77.1975 11.3168 73.6427 9.54148 71.1539 11.4091" fill="#727275"/>
<path d="M48.6582 24.0839V13.1718L58.7309 20.7263L68.8035 13.1718V24.0839L58.7309 31.6384" fill="#727275"/>
<path d="M40.2643 14.4309V17.7884L48.6582 24.0839V13.1718L46.3079 11.4091C43.8149 9.54148 40.2643 11.3168 40.2643 14.4309Z" fill="#727275"/>
<path d="M111.123 17.7288C110.564 18.2977 110.015 18.8568 109.485 19.3963C107.17 17.2286 104.492 16.591 101.55 17.67C98.6757 18.7195 97.0671 20.8971 96.7238 23.9476C96.4491 26.3605 97.0475 28.5087 98.7248 30.3233C101.716 33.57 107.484 33.364 109.966 29.9113C110.584 29.058 110.917 28.0967 111.113 27.0766C111.202 26.6254 111.094 26.4783 110.613 26.4783C108.671 26.4979 106.719 26.4881 104.777 26.4881H104.237C104.237 25.8113 104.218 24.9271 104.257 24.2993C104.257 24.2993 104.551 24.3008 104.718 24.3008C106.895 24.2812 109.063 24.291 111.241 24.291C111.81 24.291 112.388 24.3106 112.957 24.2811C113.31 24.2615 113.448 24.3694 113.477 24.7324C114.046 30.392 110.378 34.0212 106.13 34.698C102.992 35.1983 100.108 34.6392 97.6556 32.4911C95.1838 30.3331 94.1539 27.5867 94.2618 24.3302C94.4678 18.4743 100.029 13.4621 107.062 15.3355C108.543 15.7279 109.858 16.4243 110.946 17.5229C111.015 17.5916 111.074 17.67 111.123 17.7288Z" fill="#606268"/>
<path d="M136.008 34.4233H133.663V33.8446C133.663 31.4709 133.683 29.107 133.654 26.7333C133.644 26.0565 133.536 25.36 133.359 24.7127C133.144 23.928 132.555 23.467 131.77 23.261C129.701 22.7019 127.749 24.0457 127.356 26.3115C127.298 26.6646 127.268 27.0275 127.268 27.3807C127.258 29.5091 127.268 31.6278 127.268 33.7564V34.4135H124.924V33.8152C124.924 31.3924 124.943 28.9795 124.914 26.5567C124.904 25.9191 124.767 25.262 124.6 24.6342C124.443 24.0163 123.982 23.6043 123.384 23.3787C121.452 22.6234 119.48 23.5945 118.823 25.6837C118.636 26.2821 118.568 26.9294 118.568 27.567C118.538 29.8328 118.558 32.1085 118.558 34.4135H116.233V21.4856H118.43V23.2021C118.47 23.2315 118.509 23.261 118.548 23.2904C119.598 21.8485 120.971 21.0246 122.756 21.0344C124.561 21.0442 125.915 21.8289 126.797 23.5258C126.944 23.3296 127.052 23.2021 127.15 23.0648C128.798 20.8186 132.339 20.2889 134.399 22.0054C135.429 22.8686 135.89 24.0457 135.939 25.3306C136.018 27.1551 135.988 28.9893 135.998 30.8235C136.018 32.0006 136.008 33.1973 136.008 34.4233Z" fill="#606268"/>
<path d="M147.327 26.7823C147.592 25.4091 146.896 24.1438 145.542 23.4474C143.943 22.6332 142.168 23.104 140.638 24.7813C139.971 24.3694 139.304 23.9476 138.597 23.5062C139.127 22.6823 139.804 22.0643 140.647 21.6916C142.864 20.7107 145.101 20.6715 147.249 21.8485C148.867 22.7313 149.583 24.2419 149.613 26.0369C149.652 28.7637 149.622 31.4905 149.622 34.2174C149.622 34.2664 149.623 34.2143 149.623 34.3939H147.386V32.6676C147.347 32.648 147.298 32.6284 147.259 32.6186C147.161 32.7264 147.053 32.8245 146.964 32.9422C144.904 35.8162 140.54 35.1884 138.892 32.8834C137.46 30.8824 138.048 27.9594 140.226 26.8314C142.364 25.723 144.6 25.7917 146.827 26.5862C146.994 26.645 147.141 26.7137 147.327 26.7823ZM144.012 27.8809C143.767 27.9103 143.364 27.9496 142.962 28.0379C142.648 28.1065 142.334 28.2242 142.04 28.3616C141.02 28.8618 140.481 29.7348 140.579 30.6862C140.667 31.5886 141.452 32.4028 142.501 32.6774C144.62 33.2365 147.082 31.5298 147.366 29.3228C147.415 28.9795 147.327 28.7735 147.033 28.597C146.16 28.0477 145.179 27.93 144.012 27.8809Z" fill="#606268"/>
<path d="M158.47 15.4042H160.736V34.4038H158.47V15.4042Z" fill="#606268"/>
<path d="M155.056 34.443H153.055C152.977 34.443 152.888 34.449 152.78 34.4391C152.771 34.2822 152.761 34.1192 152.761 33.9721C152.761 29.98 152.771 25.9976 152.751 22.0054C152.751 21.5738 152.766 21.4241 152.766 21.4241C153.401 21.4241 154.448 21.4268 155.056 21.4268V34.443Z" fill="#606268"/>
<path d="M152.251 16.8265C152.251 15.8652 153.006 15.1492 153.987 15.159C154.899 15.1688 155.606 15.9044 155.615 16.8363C155.625 17.8073 154.88 18.5332 153.909 18.5332C152.957 18.5233 152.241 17.7877 152.251 16.8265Z" fill="#606268"/>
</g>
<defs>
<clipPath id="clip0_2_147">
<rect width="200" height="48" fill="white"/>
</clipPath>
</defs>
</svg>
