<svg width="200" height="48" viewBox="0 0 200 48" fill="none" xmlns="http://www.w3.org/2000/svg">
<g clip-path="url(#clip0_1_31)">
<path d="M32.9472 4.87755C29.8868 6.15959 26.5224 9.77696 25.4598 14.3208C24.1141 20.0764 29.7142 22.5106 30.1735 21.7135C30.7141 20.7758 29.17 20.4587 28.8522 17.4723C28.4414 13.615 30.2346 9.30506 32.4917 7.41396C32.911 7.06261 32.8911 7.55162 32.8911 8.45615C32.8911 10.0737 32.8017 24.5942 32.8017 27.6247C32.8017 31.7253 32.6324 33.0202 32.3281 34.2997C32.02 35.5963 31.5245 36.4724 31.8997 36.8099C32.3193 37.1874 34.1105 36.2895 35.1474 34.8423C36.3907 33.1067 36.8258 31.0223 36.9041 28.7588C36.9985 26.0301 36.9945 21.7002 36.9985 19.2305C37.002 16.9654 37.0365 10.3327 36.9587 6.34533C36.9396 5.36731 34.2273 4.34122 32.9472 4.87755Z" fill="#727275"/>
<path d="M141.622 24.068C141.523 26.1997 141.051 27.8661 140.466 29.0414C139.332 31.3168 136.979 32.0233 135.98 28.7525C135.436 26.9696 135.411 23.9917 135.802 21.5036C136.2 18.969 137.313 17.0547 139.155 17.2274C140.972 17.398 141.822 19.7391 141.622 24.068ZM110.992 37.2942C110.968 40.8363 110.41 43.942 109.215 44.844C107.519 46.123 105.24 45.1636 105.712 42.5789C106.13 40.2916 108.104 37.9558 110.997 35.1018C110.997 35.1018 111.003 35.7526 110.992 37.2942ZM110.529 24.0471C110.426 25.9888 109.922 27.9393 109.373 29.0414C108.239 31.3168 105.87 32.028 104.888 28.7525C104.216 26.5143 104.377 23.6177 104.709 21.7926C105.14 19.4245 106.185 17.2276 108.062 17.2276C109.887 17.2276 110.786 19.2295 110.529 24.0471ZM92.7857 24.0176C92.6744 26.0739 92.2733 27.7928 91.6295 29.0414C90.4647 31.3012 88.1603 32.0177 87.1441 28.7525C86.4114 26.3978 86.6608 23.1874 86.9656 21.453C87.4179 18.8794 88.5504 17.0547 90.3185 17.2276C92.1346 17.4051 93.0175 19.7391 92.7857 24.0176ZM174.1 26.4194C173.656 26.4194 173.453 26.8772 173.286 27.6473C172.704 30.3259 172.093 30.9305 171.305 30.9305C170.425 30.9305 169.634 29.6044 169.431 26.9494C169.271 24.8618 169.296 21.0187 169.501 17.1957C169.543 16.4102 169.326 15.633 167.219 14.8676C166.313 14.5384 164.995 14.0537 164.339 15.6375C162.485 20.1121 161.759 23.6645 161.589 25.1074C161.58 25.1822 161.488 25.1975 161.472 25.0228C161.364 23.8671 161.12 21.7666 161.09 17.354C161.084 16.493 160.902 15.7601 159.952 15.1601C159.335 14.7707 157.463 14.0822 156.788 14.9014C156.204 15.5713 155.528 17.3744 154.825 19.5116C154.253 21.2487 153.856 22.4238 153.856 22.4238C153.856 22.4238 153.863 17.7368 153.87 15.9589C153.873 15.2882 153.413 15.0647 153.274 15.0242C152.65 14.8432 151.42 14.5405 150.897 14.5405C150.253 14.5405 150.095 14.9004 150.095 15.4251C150.095 15.4941 149.994 21.596 149.994 25.8629C149.994 26.0484 149.994 26.2505 149.995 26.4655C149.638 28.4265 148.482 31.0888 147.226 31.0888C145.967 31.0888 145.373 29.9759 145.373 24.889C145.373 21.9217 145.463 20.6311 145.506 18.4848C145.532 17.2485 145.581 16.2992 145.578 16.0838C145.569 15.4231 144.426 15.0901 143.895 14.9671C143.361 14.8432 142.897 14.7949 142.534 14.8155C142.021 14.8447 141.658 15.181 141.658 15.6438C141.658 15.8922 141.661 16.3639 141.661 16.3639C141.001 15.3257 139.938 14.6031 139.231 14.3937C137.327 13.8282 135.34 14.3296 133.841 16.4265C132.65 18.0929 131.932 19.9802 131.649 22.6918C131.443 24.6743 131.51 26.6844 131.877 28.3845C131.434 30.3028 130.61 31.0888 129.708 31.0888C128.398 31.0888 127.449 28.9515 127.559 25.2549C127.632 22.8237 128.118 21.1173 128.65 18.6489C128.877 17.5966 128.693 17.0457 128.231 16.5176C127.807 16.0334 126.904 15.786 125.606 16.0903C124.681 16.3072 123.359 16.5405 122.149 16.7197C122.149 16.7197 122.222 16.4285 122.282 15.9151C122.597 13.2227 119.671 13.4411 118.738 14.3011C118.18 14.8145 117.801 15.4201 117.657 16.5088C117.429 18.2366 118.838 19.0515 118.838 19.0515C118.376 21.1681 117.242 23.9326 116.072 25.9314C115.446 27.0023 114.966 27.7958 114.347 28.6395C114.345 28.3254 114.343 28.011 114.342 27.6984C114.328 23.249 114.387 19.7474 114.414 18.485C114.439 17.2488 114.489 16.3246 114.486 16.1092C114.479 15.6262 114.197 15.4435 113.61 15.2124C113.091 15.0081 112.477 14.8666 111.841 14.8173C111.037 14.7549 110.553 15.1807 110.566 15.6846C110.568 15.7797 110.568 16.3639 110.568 16.3639C109.908 15.3257 108.845 14.6031 108.138 14.3937C106.234 13.8285 104.247 14.3296 102.748 16.4265C101.557 18.0929 100.777 20.4312 100.556 22.6712C100.351 24.7588 100.389 26.5327 100.669 28.0274C100.366 29.5239 99.4959 31.0888 98.5116 31.0888C97.2532 31.0888 96.5372 29.9759 96.5372 24.889C96.5372 21.9217 96.6263 20.6311 96.6701 18.485C96.6955 17.2488 96.7446 16.2992 96.7418 16.084C96.7325 15.4233 95.5901 15.0904 95.0586 14.9671C94.5024 14.8384 94.0222 14.7911 93.6534 14.8186C93.167 14.8546 92.8249 15.2902 92.8249 15.6151V16.3639C92.1643 15.3257 91.1017 14.6031 90.3947 14.3937C88.4905 13.8285 86.5146 14.3376 85.0048 16.4265C84.0202 17.7886 83.2232 19.2987 82.8129 22.6415C82.6944 23.6074 82.642 24.5122 82.6488 25.3576C82.2562 27.7588 80.5222 30.526 79.1037 30.526C78.2737 30.526 77.4831 28.9161 77.4831 25.4849C77.4831 20.9145 77.766 14.4073 77.8139 13.7801C77.8139 13.7801 79.6061 13.7497 79.9531 13.7457C80.8471 13.7358 81.6567 13.757 82.8474 13.6961C83.4446 13.6656 84.02 11.5223 83.4036 11.2571C83.1243 11.137 81.1498 11.0318 80.3671 11.0152C79.709 11.0004 77.8768 10.8647 77.8768 10.8647C77.8768 10.8647 78.0411 6.54541 78.0794 6.08912C78.1118 5.70883 77.6198 5.51303 77.3377 5.39424C76.6516 5.10405 76.0378 4.96513 75.3102 4.81513C74.305 4.60774 73.8489 4.8106 73.7598 5.659C73.6257 6.94659 73.5562 10.718 73.5562 10.718C72.8186 10.718 70.2988 10.5738 69.5608 10.5738C68.8753 10.5738 68.1353 13.5222 69.0832 13.5584C70.1737 13.6007 72.0741 13.6374 73.334 13.6752C73.334 13.6752 73.2779 20.2898 73.2779 22.3322C73.2779 22.5494 73.2789 22.7585 73.2801 22.9616C72.5868 26.5754 70.1445 28.5277 70.1445 28.5277C70.669 26.1368 69.5976 24.3413 67.6677 22.8214C66.9567 22.2614 65.5531 21.2011 63.9826 20.0391C63.9826 20.0391 64.8922 19.1429 65.6988 17.3391C66.2704 16.0614 66.2951 14.5996 64.8922 14.2772C62.5743 13.7442 60.663 15.4465 60.093 17.2639C59.6513 18.672 59.8868 19.7165 60.7521 20.8017C60.8153 20.881 60.8837 20.962 60.9545 21.0436C60.4312 22.052 59.7124 23.4098 59.1036 24.4629C57.4139 27.3864 56.1373 29.6988 55.1727 29.6988C54.4015 29.6988 54.4118 27.3509 54.4118 25.1527C54.4118 23.2578 54.5518 20.4088 54.6635 17.4592C54.7005 16.4837 54.2128 15.928 53.3951 15.4246C52.8982 15.1188 51.8379 14.5176 51.2238 14.5176C50.3047 14.5176 47.6528 14.6426 45.1471 21.8907C44.8312 22.8043 44.2108 24.4689 44.2108 24.4689L44.2644 15.7528C44.2644 15.5484 44.1555 15.3509 43.9063 15.2157C43.484 14.9864 42.3562 14.5176 41.3535 14.5176C40.8758 14.5176 40.6373 14.7398 40.6373 15.1827L40.5499 28.8192C40.5499 29.8556 40.5769 31.0641 40.6793 31.5926C40.7815 32.1219 40.9468 32.5525 41.1514 32.8088C41.3561 33.0645 41.5926 33.2595 41.9825 33.34C42.3454 33.4148 44.3331 33.67 44.4363 32.9104C44.5602 32.0001 44.5649 31.0155 45.6087 27.3436C47.2335 21.6267 49.3516 18.8374 50.3477 17.8468C50.5219 17.6736 50.7207 17.6633 50.7112 17.9467C50.6686 19.2 50.5191 22.3322 50.4185 24.9926C50.1487 32.1131 51.4441 33.4329 53.2951 33.4329C54.7113 33.4329 56.7076 32.0258 58.8477 28.4638C60.1818 26.244 61.4772 24.0675 62.4079 22.4988C63.0565 23.0993 63.7843 23.7453 64.5117 24.4357C66.2019 26.0399 66.7569 27.5643 66.3887 29.0104C66.1071 30.116 65.0465 31.2554 63.1589 30.148C62.6087 29.8249 62.3739 29.5752 61.8207 29.211C61.5235 29.0155 61.0697 28.9568 60.7977 29.1619C60.091 29.6947 59.6868 30.3725 59.456 31.2116C59.2315 32.028 60.0492 32.4597 60.8968 32.8372C61.6267 33.1621 63.1954 33.4566 64.1958 33.49C68.0938 33.6204 71.2164 31.608 73.3901 26.4169C73.7792 30.9003 75.4352 33.4369 78.3124 33.4369C80.236 33.4369 82.1646 30.9506 83.008 28.5046C83.2501 29.5017 83.6085 30.3687 84.0713 31.1021C86.2884 34.6148 90.5893 33.8588 92.7497 30.8759C93.4176 29.9542 93.5193 29.623 93.5193 29.623C93.8344 32.4395 96.1025 33.4236 97.4012 33.4236C98.8556 33.4236 100.357 32.736 101.41 30.3665C101.533 30.6237 101.668 30.8693 101.815 31.1021C104.032 34.6148 108.333 33.8588 110.493 30.8759C110.595 30.7359 110.683 30.6091 110.761 30.4951L110.824 32.3452C110.824 32.3452 109.592 33.4757 108.835 34.1693C105.501 37.2249 102.969 39.5426 102.782 42.2416C102.545 45.6831 105.335 46.9621 107.448 47.1297C109.689 47.3077 111.611 46.0689 112.79 44.3353C113.828 42.8094 114.508 39.5253 114.458 36.2817C114.438 34.9827 114.406 33.3312 114.38 31.5609C115.55 30.2019 116.869 28.4839 118.083 26.4735C119.406 24.2824 120.824 21.3398 121.55 19.0498C121.55 19.0498 122.782 19.0603 124.097 18.9743C124.517 18.9468 124.638 19.0327 124.56 19.341C124.466 19.7134 122.899 25.7582 124.329 29.7851C125.308 32.5417 127.515 33.4286 128.824 33.4286C130.356 33.4286 131.821 32.2719 132.606 30.5542C132.701 30.7457 132.8 30.931 132.908 31.1021C135.125 34.6148 139.41 33.8542 141.586 30.8759C142.077 30.2039 142.356 29.623 142.356 29.623C142.822 32.5379 145.089 33.4384 146.388 33.4384C147.74 33.4384 149.024 32.884 150.065 30.4198C150.109 31.5048 150.177 32.392 150.285 32.6716C150.351 32.8427 150.736 33.0574 151.015 33.1611C152.253 33.6199 153.515 33.403 153.981 33.3086C154.305 33.2431 154.557 32.9837 154.591 32.3137C154.682 30.5545 154.626 27.5988 155.16 25.4019C156.055 21.7153 156.89 20.2853 157.286 19.5773C157.508 19.1806 157.758 19.1152 157.767 19.535C157.786 20.3844 157.828 22.8788 158.175 26.2301C158.43 28.6948 158.77 30.1518 159.031 30.6129C159.778 31.9314 160.699 31.9938 161.45 31.9938C161.927 31.9938 162.926 31.8619 162.836 31.0228C162.793 30.6139 162.869 28.0863 163.752 24.4543C164.328 22.0825 165.289 19.9397 165.635 19.156C165.763 18.8671 165.823 19.0948 165.821 19.1391C165.748 20.7725 165.584 26.1151 166.249 29.0371C167.151 32.9955 169.761 33.4384 170.67 33.4384C172.611 33.4384 174.199 31.9619 174.733 28.0765C174.862 27.1415 174.672 26.4194 174.1 26.4194Z" fill="#727275"/>
</g>
<defs>
<clipPath id="clip0_1_31">
<rect width="200" height="48" fill="white"/>
</clipPath>
</defs>
</svg>
