<svg width="200" height="48" viewBox="0 0 200 48" fill="none" xmlns="http://www.w3.org/2000/svg">
<g clip-path="url(#clip0_1_19)">
<g clip-path="url(#clip1_1_19)" filter="url(#filter0_d_1_19)">
<path d="M125.573 11.7466C125.573 10.6154 126.514 9.69736 127.674 9.69736H151.899C153.059 9.69736 154 10.6154 154 11.7466V36.2549C154 37.3865 153.059 38.3038 151.899 38.3038H127.674C126.514 38.3038 125.573 37.3865 125.573 36.2553V11.7466Z" fill="#727275"/>
<path d="M45.9996 33.6595H57.8627V29.7644H50.2935V14.9055H45.9996V33.6595ZM63.8689 33.6595V20.7422H59.5754V33.6595H63.8689ZM61.7225 18.9788C63.2195 18.9788 64.1514 17.9869 64.1514 16.7465C64.1236 15.4792 63.2195 14.5154 61.751 14.5154C60.2822 14.5154 59.3218 15.4796 59.3218 16.7465C59.3218 17.9869 60.2537 18.9788 61.6944 18.9788H61.7225ZM65.8622 33.6595H70.1557V26.4456C70.1557 26.0595 70.1835 25.6735 70.2971 25.3985C70.607 24.6271 71.3135 23.828 72.4998 23.828C74.0538 23.828 74.6754 25.0128 74.6754 26.7483V33.6591H78.9682V26.2527C78.9682 22.2849 76.85 20.4386 74.0249 20.4386C71.7089 20.4386 70.6918 21.7334 70.1268 22.6154H70.1557V20.7422H65.8622C65.9188 21.9544 65.8622 33.6595 65.8622 33.6595ZM85.0254 14.9055H80.7319V33.6595H85.0254V29.4714L86.0984 28.1204L89.46 33.6595H94.7417L89.0931 25.6408L94.0356 20.1858H88.8672C88.8672 20.1858 85.3364 25.0661 85.0254 25.6453V14.9055Z" fill="#727275"/>
<path d="M106.223 28.2712C106.28 27.9395 106.365 27.3032 106.365 26.5836C106.365 23.2446 104.67 19.8545 100.207 19.8545C95.4332 19.8545 93.2298 23.6299 93.2298 27.0541C93.2298 31.2891 95.9134 33.9337 100.602 33.9337C102.467 33.9337 104.189 33.6591 105.602 33.0802L105.037 30.2446C103.878 30.6288 102.692 30.8213 101.224 30.8213C99.2183 30.8213 97.4674 29.9978 97.3259 28.2434L106.223 28.2704V28.2712ZM97.2978 25.3666C97.4107 24.2643 98.1457 22.6379 99.9814 22.6379C101.93 22.6379 102.383 24.3742 102.383 25.3666H97.2978ZM116.962 14.9055V21.3976H116.906C116.284 20.4889 114.985 19.8826 113.263 19.8826C109.957 19.8826 107.048 22.5276 107.076 27.0462C107.076 31.2347 109.703 33.9626 112.979 33.9626C114.759 33.9626 116.454 33.1905 117.301 31.7026H117.386L117.556 33.6595H121.369C121.312 32.75 121.255 31.1796 121.255 29.6365V14.9052H116.962L116.962 14.9055ZM116.962 27.6803C116.962 28.0104 116.934 28.3417 116.877 28.6164C116.624 29.8019 115.607 30.6277 114.364 30.6277C112.585 30.6277 111.426 29.1952 111.426 26.9359C111.426 24.8147 112.416 23.1061 114.392 23.1061C115.72 23.1061 116.652 24.0152 116.906 25.1445C116.962 25.3932 116.962 25.669 116.962 25.9166V27.6803Z" fill="#727275"/>
<path d="M134.19 33.6437V20.7264H129.897V33.6437H134.19ZM132.044 18.9631C133.541 18.9631 134.473 17.9711 134.473 16.7315C134.445 15.4638 133.541 14.4996 132.073 14.4996C130.603 14.4996 129.644 15.4638 129.644 16.7315C129.644 17.9711 130.575 18.9631 132.016 18.9631H132.044H132.044ZM136.567 33.6437H140.86V26.4309C140.86 26.0453 140.888 25.6588 141.001 25.3835C141.312 24.6117 142.018 23.813 143.204 23.813C144.758 23.813 145.379 24.9974 145.379 26.7341V33.6437H149.672V26.2374C149.672 22.2699 147.554 20.4236 144.73 20.4236C142.414 20.4236 141.397 21.718 140.832 22.5997H140.86V20.7268H136.567C136.623 21.9386 136.567 33.6437 136.567 33.6437Z" fill="white"/>
</g>
</g>
<defs>
<filter id="filter0_d_1_19" x="42" y="-30" width="116" height="116" filterUnits="userSpaceOnUse" color-interpolation-filters="sRGB">
<feFlood flood-opacity="0" result="BackgroundImageFix"/>
<feColorMatrix in="SourceAlpha" type="matrix" values="0 0 0 0 0 0 0 0 0 0 0 0 0 0 0 0 0 0 127 0" result="hardAlpha"/>
<feOffset dy="4"/>
<feGaussianBlur stdDeviation="2"/>
<feComposite in2="hardAlpha" operator="out"/>
<feColorMatrix type="matrix" values="0 0 0 0 0 0 0 0 0 0 0 0 0 0 0 0 0 0 0.25 0"/>
<feBlend mode="normal" in2="BackgroundImageFix" result="effect1_dropShadow_1_19"/>
<feBlend mode="normal" in="SourceGraphic" in2="effect1_dropShadow_1_19" result="shape"/>
</filter>
<clipPath id="clip0_1_19">
<rect width="200" height="48" fill="white"/>
</clipPath>
<clipPath id="clip1_1_19">
<rect width="108" height="108" fill="white" transform="translate(46 -30)"/>
</clipPath>
</defs>
</svg>
