<svg width="200" height="48" viewBox="0 0 200 48" fill="none" xmlns="http://www.w3.org/2000/svg">
<g clip-path="url(#clip0_2_151)">
<path d="M119.932 34.4628V13.5992H122.603L129.831 26.3039H129.947L137.175 13.5992H139.845V34.4628H137.175V22.0791L137.292 18.5817H137.175L130.672 30.0335H129.105L122.603 18.5817H122.487L122.603 22.0791V34.4628H119.932Z" fill="#727275"/>
<path d="M148.063 34.9288C146.553 34.9288 145.29 34.4917 144.275 33.6176C143.259 32.7434 142.751 31.5876 142.751 30.1499C142.751 28.5961 143.351 27.3773 144.551 26.4934C145.75 25.6094 147.231 25.1675 148.992 25.1675C150.559 25.1675 151.846 25.4589 152.852 26.0416V25.6334C152.852 24.5847 152.494 23.7447 151.778 23.1133C151.062 22.482 150.181 22.1663 149.136 22.1663C148.363 22.1663 147.661 22.3508 147.032 22.7198C146.403 23.0889 145.973 23.5938 145.741 24.2347L143.302 23.1862C143.631 22.3314 144.279 21.5397 145.247 20.811C146.215 20.0825 147.492 19.7182 149.079 19.7182C150.898 19.7182 152.407 20.2525 153.607 21.321C154.806 22.3896 155.406 23.8953 155.406 25.838V34.4628H152.852V32.4816H152.736C151.671 34.113 150.114 34.9288 148.063 34.9288ZM148.498 32.4816C149.601 32.4816 150.602 32.0687 151.502 31.2428C152.402 30.417 152.852 29.4409 152.852 28.3145C152.098 27.6927 150.965 27.3817 149.456 27.3817C148.159 27.3817 147.182 27.6635 146.524 28.2269C145.866 28.7904 145.537 29.451 145.537 30.2086C145.537 30.9082 145.837 31.4619 146.437 31.8698C147.037 32.2776 147.724 32.4816 148.498 32.4816Z" fill="#727275"/>
<path d="M165.819 34.9288C164.736 34.9288 163.763 34.6956 162.902 34.2294C162.041 33.7631 161.397 33.1805 160.972 32.4816H160.856L160.972 34.4628V40.7569H158.301V20.185H160.856V22.1663H160.972C161.397 21.4667 162.041 20.8838 162.902 20.4175C163.763 19.9513 164.736 19.7182 165.819 19.7182C167.658 19.7182 169.245 20.4468 170.58 21.9039C171.915 23.3611 172.583 25.1678 172.583 27.3239C172.583 29.4801 171.915 31.2866 170.58 32.7434C169.245 34.2003 167.658 34.9288 165.819 34.9288ZM165.384 32.4816C166.622 32.4816 167.686 32.0104 168.577 31.0681C169.467 30.1258 169.912 28.8776 169.912 27.3235C169.912 25.7694 169.467 24.5213 168.577 23.5793C167.686 22.6373 166.622 22.1663 165.384 22.1663C164.126 22.1663 163.057 22.6325 162.176 23.565C161.296 24.4976 160.856 25.7505 160.856 27.3239C160.856 28.8973 161.296 30.1502 162.176 31.0828C163.057 32.0153 164.126 32.4816 165.384 32.4816Z" fill="#727275"/>
<path d="M180.312 34.9288C178.725 34.9288 177.414 34.5403 176.379 33.7634C175.343 32.9865 174.584 32.0153 174.099 30.8498L176.48 29.8592C177.234 31.646 178.522 32.5394 180.341 32.5394C181.173 32.5394 181.855 32.3548 182.387 31.9858C182.919 31.6168 183.186 31.1311 183.186 30.5288C183.186 29.5962 182.537 28.9649 181.24 28.6347L178.367 27.9357C177.457 27.7027 176.596 27.2608 175.783 26.6098C174.971 25.9589 174.564 25.08 174.564 23.9732C174.564 22.7105 175.121 21.6856 176.233 20.8986C177.346 20.1117 178.667 19.7182 180.196 19.7182C181.454 19.7182 182.576 20.0048 183.563 20.5781C184.55 21.1513 185.256 21.9721 185.682 23.0404L183.359 24.0017C182.837 22.739 181.753 22.1076 180.108 22.1076C179.315 22.1076 178.648 22.2727 178.106 22.6029C177.564 22.9331 177.293 23.3801 177.293 23.9439C177.293 24.7596 177.922 25.3133 179.18 25.605L181.995 26.2746C183.33 26.5853 184.317 27.1194 184.956 27.877C185.595 28.6347 185.914 29.4895 185.914 30.4416C185.914 31.7239 185.391 32.7924 184.346 33.6469C183.301 34.5015 181.957 34.9288 180.312 34.9288Z" fill="#727275"/>
<path d="M37.8592 21.3262H26.5757V24.6872H34.5779C34.1826 29.4004 30.2764 31.4104 26.5892 31.4104C21.8718 31.4104 17.7554 27.6845 17.7554 22.4621C17.7554 17.3748 21.6794 13.4569 26.5996 13.4569C30.3956 13.4569 32.6324 15.886 32.6324 15.886L34.9768 13.449C34.9768 13.449 31.9677 10.0863 26.4798 10.0863C19.4922 10.0863 14.086 16.0071 14.086 22.4022C14.086 28.6687 19.1715 34.7796 26.6583 34.7796C33.2433 34.7796 38.0635 30.2513 38.0635 23.5554C38.0635 22.1426 37.8592 21.3262 37.8592 21.3262Z" fill="#727275"/>
<path d="M47.1024 18.8923C42.4726 18.8923 39.1546 22.5258 39.1546 26.7636C39.1546 31.064 42.3729 34.765 47.1568 34.765C51.4876 34.765 55.0356 31.4422 55.0356 26.856C55.0356 21.5996 50.9085 18.8923 47.1024 18.8923ZM47.1485 22.0098C49.4253 22.0098 51.5828 23.8575 51.5828 26.835C51.5828 29.7493 49.4344 31.6497 47.138 31.6497C44.6147 31.6497 42.6242 29.6211 42.6242 26.8119C42.6242 24.0629 44.5901 22.0098 47.1485 22.0098Z" fill="#727275"/>
<path d="M64.3886 18.8923C59.7588 18.8923 56.4407 22.5258 56.4407 26.7636C56.4407 31.064 59.659 34.765 64.443 34.765C68.7738 34.765 72.3218 31.4422 72.3218 26.856C72.3218 21.5996 68.1947 18.8923 64.3886 18.8923ZM64.4346 22.0098C66.7115 22.0098 68.869 23.8575 68.869 26.835C68.869 29.7493 66.7206 31.6497 64.4242 31.6497C61.9009 31.6497 59.9104 29.6211 59.9104 26.8119C59.9104 24.0629 61.8762 22.0098 64.4346 22.0098Z" fill="#727275"/>
<path d="M81.3422 18.9007C77.0925 18.9007 73.7522 22.6371 73.7522 26.8308C73.7522 31.6078 77.6248 34.7755 81.2689 34.7755C83.5222 34.7755 84.7204 33.8777 85.6049 32.8471V34.4122C85.6049 37.1503 83.9487 38.79 81.4489 38.79C79.034 38.79 77.8227 36.9874 77.4017 35.9645L74.3632 37.2397C75.4412 39.5276 77.611 41.9137 81.474 41.9137C85.6992 41.9137 88.9197 39.242 88.9197 33.6391V19.3776H85.6049V20.722C84.5864 19.6196 83.1926 18.9007 81.3422 18.9007ZM81.6498 22.0119C83.7334 22.0119 85.8728 23.7977 85.8728 26.8476C85.8728 29.9475 83.7379 31.6561 81.6038 31.6561C79.3382 31.6561 77.2302 29.8094 77.2302 26.877C77.2302 23.83 79.4195 22.0119 81.6498 22.0119Z" fill="#727275"/>
<path d="M103.658 18.8819C99.6494 18.8819 96.2837 22.0834 96.2837 26.8077C96.2837 31.8066 100.035 34.7714 104.043 34.7714C107.388 34.7714 109.441 32.9344 110.666 31.2884L107.933 29.463C107.224 30.5678 106.039 31.6476 104.06 31.6476C101.837 31.6476 100.815 30.4259 100.182 29.2424L110.784 24.8268L110.233 23.5327C109.209 20.9985 106.819 18.8819 103.658 18.8819ZM103.796 21.9341C105.241 21.9341 106.28 22.7051 106.722 23.6294L99.6424 26.5997C99.3371 24.3001 101.507 21.9341 103.796 21.9341Z" fill="#727275"/>
<path d="M91.23 34.3H94.7121V10.9068H91.23V34.3Z" fill="#727275"/>
</g>
<defs>
<clipPath id="clip0_2_151">
<rect width="172" height="32" fill="white" transform="translate(14 10)"/>
</clipPath>
</defs>
</svg>
