<svg width="200" height="48" viewBox="0 0 200 48" fill="none" xmlns="http://www.w3.org/2000/svg">
<g clip-path="url(#clip0_1_43)">
<mask id="mask0_1_43" style="mask-type:luminance" maskUnits="userSpaceOnUse" x="-46" y="-25" width="293" height="95">
<path d="M-46 70H246.452V-25H-46V70Z" fill="white"/>
</mask>
<g mask="url(#mask0_1_43)">
<path d="M58.8934 8.61336C57.3919 6.90198 54.6777 6.16826 51.2056 6.16826H41.1283C40.7846 6.16808 40.4521 6.29058 40.1906 6.51371C39.9292 6.73684 39.756 7.04596 39.7021 7.38543L35.508 33.999C35.4885 34.1224 35.4961 34.2486 35.5301 34.3689C35.5641 34.4892 35.6238 34.6006 35.7051 34.6956C35.7863 34.7906 35.8872 34.8668 36.0007 34.919C36.1143 34.9713 36.2378 34.9983 36.3628 34.9982H42.584L44.1465 25.0877L44.0981 25.3981C44.1509 25.0593 44.323 24.7505 44.5833 24.5273C44.8436 24.3041 45.1751 24.1813 45.518 24.1809H48.4743C54.2821 24.1809 58.8297 21.8219 60.1581 14.9979C60.1975 14.7961 60.2316 14.5996 60.2612 14.4077C60.6559 11.8855 60.2585 10.1687 58.8942 8.61426" fill="#727275"/>
<path d="M135.056 21.2775C134.675 23.7746 132.768 23.7746 130.924 23.7746H129.875L130.611 19.1122C130.656 18.8306 130.898 18.6234 131.183 18.6234H131.665C132.921 18.6234 134.107 18.6234 134.718 19.3382C135.083 19.7661 135.194 20.4011 135.056 21.2775ZM134.253 14.762H127.296C127.066 14.7621 126.843 14.8443 126.668 14.9939C126.492 15.1435 126.376 15.3507 126.34 15.5782L123.529 33.4159C123.516 33.4986 123.521 33.5831 123.544 33.6637C123.567 33.7442 123.607 33.8189 123.661 33.8825C123.715 33.9462 123.783 33.9973 123.859 34.0324C123.935 34.0675 124.017 34.0858 124.101 34.086H127.671C128.004 34.086 128.287 33.8438 128.339 33.5155L129.138 28.4567C129.211 27.9876 129.617 27.6404 130.092 27.6404H132.293C136.876 27.6404 139.521 25.4241 140.211 21.0281C140.523 19.1068 140.224 17.5964 139.324 16.5388C138.335 15.3764 136.581 14.7611 134.254 14.7611" fill="#5D686C"/>
<path d="M85.4362 21.2775C85.0559 23.7746 83.1489 23.7746 81.3039 23.7746H80.2545L80.9909 19.1122C81.0357 18.8306 81.2779 18.6234 81.5631 18.6234H82.0448C83.3005 18.6234 84.4863 18.6234 85.098 19.3382C85.464 19.7661 85.5743 20.4011 85.4362 21.2775ZM84.6334 14.762H77.6766C77.2012 14.762 76.7958 15.1082 76.7214 15.5782L73.9094 33.4159C73.8963 33.4987 73.9013 33.5832 73.924 33.6638C73.9468 33.7444 73.9867 33.8192 74.0411 33.8828C74.0955 33.9465 74.1631 33.9977 74.2391 34.0327C74.3152 34.0678 74.3979 34.086 74.4817 34.086H77.804C78.2794 34.086 78.6839 33.7397 78.7583 33.2697L79.5181 28.4576C79.5916 27.9876 79.997 27.6413 80.4724 27.6413H82.6735C87.257 27.6413 89.9012 25.4241 90.5919 21.0281C90.9031 19.1068 90.6044 17.5964 89.7048 16.5388C88.7154 15.3764 86.9619 14.7611 84.6343 14.7611M100.785 27.6817C100.462 29.585 98.9524 30.8632 97.0248 30.8632C96.0588 30.8632 95.2847 30.552 94.7878 29.9636C94.2945 29.3805 94.1097 28.5491 94.2658 27.6243C94.5654 25.7371 96.1009 24.4186 97.9989 24.4186C98.9452 24.4186 99.7121 24.7325 100.22 25.3263C100.73 25.9246 100.931 26.7605 100.785 27.6817ZM105.427 21.1967H102.096C101.958 21.1966 101.824 21.2459 101.718 21.3359C101.613 21.4259 101.544 21.5505 101.522 21.6874L101.377 22.6184L101.144 22.2811C100.422 21.2344 98.8142 20.8837 97.2087 20.8837C93.5285 20.8837 90.3847 23.6732 89.7729 27.5839C89.4545 29.5366 89.9066 31.4014 91.0134 32.7029C92.0297 33.8985 93.48 34.3963 95.2085 34.3963C98.1756 34.3963 99.8206 32.4912 99.8206 32.4912L99.6717 33.4168C99.6586 33.4996 99.6636 33.5843 99.6864 33.6649C99.7092 33.7456 99.7492 33.8204 99.8037 33.8841C99.8582 33.9478 99.9259 33.9989 100.002 34.0339C100.078 34.0689 100.161 34.087 100.245 34.0869H103.244C103.72 34.0869 104.125 33.7415 104.2 33.2706L106.001 21.8677C106.014 21.7848 106.008 21.7001 105.986 21.6195C105.963 21.5388 105.923 21.4641 105.868 21.4004C105.813 21.3367 105.746 21.2856 105.67 21.2506C105.593 21.2156 105.51 21.1975 105.427 21.1976" fill="#727275"/>
<path d="M150.404 27.6817C150.081 29.585 148.572 30.8632 146.644 30.8632C145.678 30.8632 144.904 30.552 144.407 29.9636C143.914 29.3805 143.729 28.5491 143.885 27.6243C144.185 25.7371 145.719 24.4186 147.618 24.4186C148.565 24.4186 149.332 24.7325 149.839 25.3263C150.35 25.9246 150.55 26.7605 150.404 27.6817ZM155.047 21.1967H151.716C151.577 21.1966 151.443 21.2459 151.338 21.3359C151.233 21.4259 151.163 21.5505 151.142 21.6874L150.996 22.6184L150.763 22.2811C150.042 21.2344 148.434 20.8837 146.828 20.8837C143.149 20.8837 140.005 23.6732 139.392 27.5839C139.074 29.5366 139.527 31.4014 140.634 32.7029C141.65 33.8985 143.1 34.3963 144.829 34.3963C147.797 34.3963 149.442 32.4912 149.442 32.4912L149.293 33.4168C149.28 33.4995 149.284 33.5841 149.307 33.6648C149.329 33.7455 149.369 33.8203 149.424 33.884C149.478 33.9478 149.546 33.9989 149.622 34.0339C149.698 34.069 149.781 34.087 149.864 34.0869H152.863C153.338 34.0869 153.744 33.7415 153.819 33.2706L155.62 21.8677C155.633 21.7848 155.628 21.7001 155.605 21.6195C155.582 21.5388 155.542 21.4641 155.487 21.4004C155.433 21.3367 155.365 21.2856 155.289 21.2506C155.213 21.2156 155.13 21.1975 155.046 21.1976" fill="#5D686C"/>
<path d="M123.17 21.1976H119.821C119.501 21.1976 119.202 21.3564 119.022 21.6219L114.403 28.4244L112.445 21.8874C112.385 21.688 112.263 21.5132 112.096 21.3888C111.929 21.2644 111.727 21.197 111.519 21.1967H108.228C108.135 21.1968 108.044 21.2188 107.962 21.2611C107.88 21.3033 107.809 21.3645 107.756 21.4395C107.702 21.5146 107.667 21.6014 107.654 21.6927C107.64 21.784 107.649 21.8772 107.679 21.9645L111.365 32.7872L107.898 37.6801C107.836 37.7669 107.8 37.8689 107.793 37.975C107.785 38.081 107.807 38.187 107.856 38.2814C107.905 38.3758 107.979 38.455 108.07 38.5103C108.161 38.5655 108.265 38.5948 108.371 38.595H111.717C112.033 38.595 112.329 38.4398 112.511 38.1797L123.645 22.108C123.706 22.0212 123.741 21.9194 123.748 21.8138C123.755 21.7081 123.732 21.6027 123.683 21.5089C123.634 21.415 123.561 21.3364 123.47 21.2816C123.38 21.2267 123.276 21.1977 123.17 21.1976Z" fill="#727275"/>
<path d="M158.973 15.2526L156.117 33.4168C156.104 33.4996 156.109 33.5842 156.132 33.6648C156.155 33.7454 156.195 33.8201 156.249 33.8838C156.304 33.9474 156.371 33.9985 156.447 34.0336C156.524 34.0687 156.606 34.0868 156.69 34.0869H159.561C160.037 34.0869 160.442 33.7406 160.516 33.2706L163.332 15.432C163.345 15.3492 163.34 15.2646 163.317 15.1839C163.295 15.1032 163.254 15.0285 163.2 14.9648C163.146 14.9011 163.078 14.8499 163.002 14.8149C162.926 14.7799 162.843 14.7619 162.759 14.762H159.546C159.408 14.7616 159.274 14.8108 159.169 14.9007C159.064 14.9905 158.994 15.116 158.973 15.2526Z" fill="#5D686C"/>
<path d="M58.8934 8.61336C57.3919 6.90198 54.6777 6.16826 51.2056 6.16826H41.1283C40.7846 6.16808 40.4521 6.29058 40.1906 6.51371C39.9292 6.73684 39.756 7.04596 39.7021 7.38543L35.508 33.999C35.4885 34.1224 35.4961 34.2486 35.5301 34.3689C35.5641 34.4892 35.6238 34.6006 35.7051 34.6956C35.7863 34.7906 35.8872 34.8668 36.0007 34.919C36.1143 34.9713 36.2378 34.9983 36.3628 34.9982H42.584L44.1465 25.0877L44.0981 25.3981C44.1509 25.0593 44.323 24.7505 44.5833 24.5273C44.8436 24.3041 45.1751 24.1813 45.518 24.1809H48.4743C54.2821 24.1809 58.8297 21.8219 60.1581 14.9979C60.1975 14.7961 60.2316 14.5996 60.2612 14.4077C60.6559 11.8855 60.2585 10.1687 58.8942 8.61426" fill="#727275"/>
<path d="M45.8248 14.4409C45.8719 14.1442 46.0233 13.8741 46.2516 13.679C46.4799 13.4839 46.7703 13.3765 47.0707 13.3762H54.971C55.9066 13.3762 56.7793 13.4372 57.5767 13.5645C58.0127 13.6347 58.444 13.7311 58.8683 13.8534C59.3502 13.9888 59.8165 14.1746 60.2595 14.4077C60.6559 11.8846 60.2577 10.1687 58.8934 8.61336C57.391 6.90287 54.6777 6.16916 51.2056 6.16916H41.1274C40.784 6.16941 40.452 6.2921 40.1909 6.51519C39.9298 6.73828 39.7569 7.04716 39.7031 7.38633L35.5071 33.9972C35.4876 34.1206 35.495 34.2468 35.5289 34.3672C35.5628 34.4875 35.6224 34.599 35.7035 34.6941C35.7847 34.7891 35.8855 34.8654 35.999 34.9178C36.1125 34.9701 36.236 34.9973 36.361 34.9973H42.5832L44.1457 25.0859L45.8248 14.4409Z" fill="#727275"/>
<path d="M60.2604 14.4068C60.2296 14.6041 60.1952 14.8009 60.1572 14.997C58.8289 21.8201 54.2813 24.18 48.4735 24.18H45.5163C45.1734 24.1802 44.842 24.3031 44.5818 24.5263C44.3216 24.7495 44.1497 25.0584 44.0973 25.3972L42.5832 34.9964L42.1527 37.7195C42.1356 37.8276 42.1421 37.9382 42.1718 38.0435C42.2015 38.1489 42.2538 38.2465 42.3249 38.3297C42.396 38.4129 42.4843 38.4797 42.5837 38.5255C42.6831 38.5713 42.7913 38.595 42.9007 38.595H48.1452C48.7659 38.595 49.2933 38.1429 49.3911 37.5303L49.4422 37.263L50.4307 30.9986L50.4935 30.6524C50.5405 30.3556 50.6919 30.0852 50.9204 29.8901C51.149 29.6949 51.4397 29.5877 51.7402 29.5877H52.5251C57.6054 29.5877 61.5834 27.5247 62.7459 21.5546C63.2302 19.0611 62.9791 16.9775 61.6964 15.5145C61.2891 15.061 60.8025 14.6856 60.2604 14.4068Z" fill="#5D686C"/>
<path d="M58.8692 13.8534C58.6665 13.7933 58.4575 13.7395 58.2423 13.6919C58.027 13.6444 57.8045 13.6022 57.5767 13.5663C56.7784 13.4363 55.9066 13.3753 54.9702 13.3753H47.0707C46.77 13.3749 46.4791 13.4822 46.2506 13.6776C46.0221 13.873 45.8711 14.1438 45.8248 14.4409L44.1457 25.0877L44.0973 25.3972C44.1497 25.0584 44.3216 24.7495 44.5818 24.5263C44.842 24.3031 45.1734 24.1802 45.5163 24.18H48.4735C54.2813 24.18 58.8289 21.821 60.1573 14.997C60.1967 14.7952 60.2299 14.5996 60.2604 14.4068C59.9096 14.2232 59.5442 14.069 59.1679 13.9458C59.0701 13.9135 58.9706 13.8839 58.8692 13.8534Z" fill="#727275"/>
</g>
</g>
<defs>
<clipPath id="clip0_1_43">
<rect width="200" height="48" fill="white"/>
</clipPath>
</defs>
</svg>
