<svg width="200" height="48" viewBox="0 0 200 48" fill="none" xmlns="http://www.w3.org/2000/svg">
<g clip-path="url(#clip0_1_2)">
<g clip-path="url(#clip1_1_2)">
<path d="M165.173 27.3812C165.096 27.7661 164.962 28.0931 164.779 28.3816C164.597 28.6698 164.356 28.901 164.049 29.0834C163.75 29.2568 163.376 29.3526 162.933 29.3526C162.5 29.3526 162.125 29.2663 161.827 29.0834C161.53 28.9094 161.276 28.6692 161.087 28.3816C160.904 28.0934 160.769 27.7661 160.683 27.3812C160.598 26.9993 160.556 26.6091 160.558 26.2178C160.558 25.814 160.597 25.4099 160.673 25.0354C160.75 24.6505 160.885 24.314 161.068 24.0255C161.25 23.727 161.491 23.4966 161.798 23.3045C162.097 23.1216 162.471 23.0255 162.914 23.0255C163.346 23.0255 163.712 23.1216 164.01 23.3045C164.308 23.4892 164.562 23.7389 164.75 24.035C164.943 24.333 165.077 24.679 165.164 25.0544C165.25 25.4389 165.289 25.8235 165.289 26.2178C165.289 26.6121 165.25 26.9967 165.173 27.3812ZM167.731 24.2755C167.548 23.6312 167.279 23.0735 166.914 22.5831C166.539 22.1025 166.077 21.7079 165.52 21.4197C164.962 21.1312 164.289 20.9773 163.51 20.9773C162.894 20.9773 162.336 21.1024 161.827 21.3429C161.317 21.5833 160.894 21.9774 160.567 22.5063H160.529V21.2465H157.952V34.5838H160.663V29.9005H160.702C161.021 30.371 161.459 30.7492 161.971 30.9969C162.491 31.2469 163.048 31.372 163.664 31.372C164.385 31.372 165.019 31.2279 165.568 30.9489C166.097 30.6779 166.56 30.2938 166.923 29.8237C167.289 29.3526 167.558 28.8139 167.731 28.1987C167.914 27.5832 168.001 26.9489 168.001 26.2851C168.001 25.5833 167.914 24.9103 167.731 24.2657V24.2755ZM154.355 27.3812C154.279 27.7661 154.144 28.0931 153.961 28.3816C153.778 28.6701 153.538 28.901 153.23 29.0834C152.932 29.2568 152.557 29.3526 152.115 29.3526C151.682 29.3526 151.317 29.2663 151.009 29.0834C150.712 28.9092 150.458 28.6691 150.268 28.3816C150.086 28.0934 149.951 27.7661 149.865 27.3812C149.78 26.9993 149.738 26.6091 149.74 26.2178C149.74 25.814 149.778 25.4099 149.855 25.0354C149.932 24.6505 150.066 24.314 150.249 24.0255C150.432 23.727 150.672 23.4966 150.98 23.3045C151.278 23.1216 151.653 23.0255 152.095 23.0255C152.529 23.0255 152.894 23.1216 153.192 23.3045C153.491 23.4892 153.744 23.7389 153.932 24.035C154.125 24.333 154.259 24.679 154.346 25.0544C154.432 25.4389 154.471 25.8235 154.471 26.2178C154.471 26.6121 154.432 26.9967 154.355 27.3812ZM156.096 22.5831C155.73 22.1025 155.259 21.7079 154.702 21.4197C154.144 21.1312 153.471 20.9773 152.692 20.9773C152.076 20.9773 151.519 21.1024 151.009 21.3429C150.499 21.5833 150.076 21.9774 149.749 22.5063H149.71V21.2465H147.133V34.5838H149.845V29.9005H149.884C150.204 30.371 150.641 30.7492 151.153 30.9969C151.672 31.2469 152.23 31.372 152.845 31.372C153.576 31.372 154.201 31.2279 154.75 30.9489C155.279 30.6777 155.741 30.2936 156.105 29.8237C156.471 29.3526 156.74 28.8139 156.923 28.1987C157.1 27.5762 157.191 26.9323 157.192 26.2851C157.192 25.5833 157.105 24.9103 156.923 24.2657C156.74 23.6217 156.471 23.0637 156.096 22.5736V22.5831ZM138.248 25.8525L140.027 20.8424H140.066L141.787 25.8525H138.248ZM138.537 17.477L133.373 31.1218H136.392L137.46 28.0833H142.566L143.595 31.1218H146.71L141.604 17.477H138.527H138.537ZM133.152 26.7948C132.969 26.487 132.738 26.2178 132.44 26.0064C132.152 25.795 131.815 25.6311 131.44 25.4967C131.06 25.3719 130.675 25.2629 130.286 25.17C129.901 25.0831 129.526 24.9966 129.161 24.9198C128.795 24.843 128.459 24.7561 128.18 24.66C127.892 24.564 127.661 24.4391 127.488 24.285C127.305 24.1311 127.218 23.939 127.218 23.689C127.218 23.4871 127.266 23.3235 127.372 23.1984C127.478 23.0735 127.603 22.9869 127.747 22.9196C127.891 22.8523 128.055 22.8138 128.238 22.7948C128.404 22.7764 128.571 22.7668 128.738 22.766C129.219 22.766 129.642 22.8621 129.998 23.0447C130.354 23.2274 130.555 23.5832 130.584 24.1023H133.161C133.113 23.4868 132.95 22.9869 132.69 22.5828C132.43 22.1788 132.104 21.8618 131.709 21.6213C131.315 21.3809 130.863 21.208 130.363 21.1022C129.863 20.9963 129.344 20.9483 128.805 20.9483C128.267 20.9483 127.748 20.9966 127.238 21.0924C126.728 21.1885 126.267 21.3521 125.863 21.5926C125.45 21.833 125.123 22.1505 124.882 22.5541C124.632 22.9579 124.507 23.4871 124.507 24.1213C124.507 24.5542 124.594 24.9195 124.776 25.2175C124.95 25.516 125.19 25.7657 125.478 25.9676C125.777 26.16 126.104 26.3236 126.479 26.4485C126.854 26.5733 127.238 26.6794 127.633 26.7657C128.604 26.9676 129.354 27.1696 129.902 27.3715C130.44 27.5734 130.71 27.8811 130.71 28.285C130.71 28.5254 130.652 28.7273 130.537 28.8907C130.424 29.0503 130.276 29.1819 130.104 29.2752C129.931 29.3713 129.738 29.4389 129.527 29.4867C129.328 29.5319 129.125 29.5544 128.921 29.554C128.652 29.554 128.392 29.5255 128.152 29.4579C127.902 29.3906 127.681 29.294 127.488 29.1596C127.296 29.025 127.142 28.8519 127.017 28.6405C126.892 28.4291 126.834 28.1788 126.834 27.8904H124.257C124.286 28.5536 124.431 29.1018 124.709 29.5442C124.979 29.9868 125.334 30.3328 125.758 30.6021C126.181 30.8713 126.671 31.0634 127.219 31.1788C127.767 31.2944 128.325 31.3522 128.902 31.3522C129.46 31.3522 130.017 31.2944 130.556 31.1883C131.094 31.0827 131.575 30.8903 131.998 30.6211C132.421 30.3518 132.758 29.9961 133.018 29.5632C133.277 29.1211 133.412 28.5827 133.412 27.9286C133.412 27.4673 133.325 27.0827 133.143 26.7747L133.152 26.7948ZM121.93 18.2849H119.218V21.2465H117.573V23.0637H119.218V28.8912C119.218 29.3914 119.304 29.7857 119.468 30.0932C119.632 30.4012 119.862 30.6316 120.151 30.8051C120.439 30.9684 120.766 31.0838 121.141 31.1416C121.536 31.2003 121.935 31.2292 122.334 31.2279C122.603 31.2279 122.872 31.2184 123.161 31.2089C123.415 31.2003 123.669 31.1745 123.92 31.1318V29.0258C123.788 29.0558 123.653 29.075 123.517 29.0834C123.37 29.0949 123.222 29.1013 123.074 29.1026C122.613 29.1026 122.314 29.0258 122.161 28.8717C122.007 28.7181 121.93 28.4101 121.93 27.9585V23.0637H123.92V21.2465H121.93V18.2849H121.93ZM114.15 27.3044C114.15 27.458 114.131 27.6602 114.102 27.9199C114.07 28.1856 113.981 28.4413 113.842 28.6701C113.698 28.9203 113.487 29.1317 113.189 29.3146C112.9 29.497 112.477 29.5838 111.948 29.5838C111.737 29.5838 111.525 29.5643 111.314 29.526C111.112 29.4872 110.929 29.4199 110.775 29.3241C110.621 29.2278 110.506 29.1029 110.41 28.9298C110.323 28.7664 110.275 28.5645 110.275 28.3143C110.275 28.0545 110.323 27.8526 110.41 27.6798C110.496 27.5158 110.621 27.3812 110.766 27.2662C110.91 27.1603 111.083 27.074 111.285 27.0067C111.487 26.9394 111.679 26.8911 111.891 26.8526C112.108 26.8152 112.326 26.7832 112.544 26.7565C112.765 26.7277 112.968 26.6987 113.17 26.6604C113.371 26.6222 113.554 26.5739 113.727 26.5163C113.9 26.4588 114.045 26.3817 114.16 26.2759V27.2857L114.15 27.3044ZM116.862 28.9295V23.7848C116.862 23.1889 116.727 22.708 116.458 22.3427C116.189 21.9771 115.842 21.6984 115.429 21.4965C115.006 21.2946 114.544 21.16 114.035 21.0832C113.534 21.0148 113.03 20.9794 112.525 20.9773C111.977 20.9773 111.429 21.0351 110.89 21.141C110.352 21.2468 109.862 21.4292 109.429 21.6892C109.003 21.9427 108.638 22.2876 108.361 22.699C108.083 23.1221 107.919 23.6508 107.881 24.2855H110.592C110.641 23.7474 110.823 23.3723 111.131 23.1414C111.439 22.9104 111.852 22.7953 112.391 22.7953C112.631 22.7953 112.862 22.8143 113.073 22.8434C113.27 22.8693 113.46 22.9347 113.631 23.0358C113.795 23.1319 113.92 23.2665 114.016 23.4396C114.112 23.6128 114.16 23.8432 114.16 24.1414C114.17 24.4201 114.093 24.6321 113.91 24.7857C113.727 24.9298 113.487 25.0454 113.179 25.1222C112.872 25.199 112.526 25.2568 112.131 25.2954C111.737 25.3339 111.333 25.3819 110.929 25.4492C110.525 25.5165 110.121 25.6028 109.718 25.7087C109.314 25.8145 108.958 25.9779 108.65 26.1993C108.333 26.4203 108.083 26.7087 107.881 27.0645C107.679 27.4301 107.583 27.8917 107.583 28.4494C107.583 28.9591 107.669 29.4014 107.842 29.7667C108.005 30.1229 108.248 30.4359 108.554 30.6805C108.871 30.9274 109.234 31.1103 109.621 31.2189C110.025 31.3343 110.467 31.3918 110.938 31.3918C111.554 31.3918 112.15 31.3055 112.737 31.1226C113.317 30.9455 113.843 30.6248 114.266 30.1901C114.275 30.3535 114.304 30.5166 114.333 30.6805C114.362 30.8341 114.41 30.9977 114.458 31.1516H117.208C117.083 30.9497 116.987 30.6417 116.939 30.2379C116.888 29.8135 116.862 29.3865 116.862 28.9591V28.9295H116.862ZM105.688 22.1022C105.419 21.7562 105.053 21.4772 104.592 21.2848C104.13 21.0829 103.535 20.9866 102.803 20.9866C102.294 20.9866 101.775 21.1212 101.236 21.3809C100.698 21.6406 100.265 22.0637 99.9188 22.6309H99.861V17.4865H97.1493V31.1315H99.861V25.9486C99.861 24.9388 100.025 24.2177 100.361 23.7753C100.688 23.333 101.227 23.1216 101.967 23.1216C102.611 23.1216 103.073 23.3235 103.323 23.727C103.573 24.1308 103.708 24.7368 103.708 25.554V31.1315H106.419V25.0544C106.419 24.4389 106.362 23.8814 106.256 23.3813C106.15 22.8811 105.957 22.4485 105.688 22.1022ZM91.3506 26.8911H91.3121L88.9852 17.4867H86.1772L83.8115 26.7758H83.7729L81.6092 17.4867H78.6093L82.2247 31.1318H85.2634L87.5327 21.8425H87.5713L89.8791 31.1318H92.8601L94.4946 25.0736L96.5333 17.4867H93.5906L91.3506 26.8911Z" fill="#727275"/>
<path d="M53.1749 39.3437C49.8572 39.3437 46.7609 38.3436 44.1744 36.6418L37.8852 38.6511L39.9239 32.574C37.9623 29.8813 36.8086 26.5638 36.8086 22.9867C36.8086 13.9669 44.1456 6.62992 53.1654 6.62992C62.1852 6.62992 69.5221 13.9669 69.5221 22.9867C69.5221 32.0062 62.1852 39.3434 53.1654 39.3434H53.1749V39.3437ZM53.1749 3.53339C42.4334 3.53339 33.7216 12.246 33.7216 22.9869C33.7216 26.6602 34.7409 30.1027 36.5101 33.0356L33.0003 43.469L43.7705 40.017C46.6493 41.6088 49.8854 42.4427 53.1749 42.4402C63.9161 42.4402 72.6282 33.7282 72.6282 22.9869C72.6279 12.246 63.9161 3.53339 53.1749 3.53339Z" fill="#FEFEFE"/>
<path d="M53.1749 6.62992C44.1551 6.62992 36.8181 13.9669 36.8181 22.9867C36.8181 26.5638 37.9721 29.8813 39.9337 32.574L37.895 38.6511L44.1839 36.6418C46.7704 38.3534 49.8572 39.3437 53.1844 39.3437C62.2042 39.3437 69.5411 32.0065 69.5411 22.9869C69.5411 13.9671 62.2042 6.63019 53.1844 6.63019H53.1749V6.62992Z" fill="url(#paint0_linear_1_2)"/>
<path d="M48.6072 14.9384C48.2899 14.1788 48.0495 14.15 47.5689 14.1305C47.3864 14.1188 47.2035 14.1124 47.0207 14.1115C46.3954 14.1115 45.7416 14.2942 45.3473 14.698C44.8667 15.1884 43.6742 16.3325 43.6742 18.679C43.6742 21.0254 45.3858 23.2947 45.6165 23.6122C45.8569 23.9292 48.9535 28.8142 53.7614 30.8051C57.5212 32.3628 58.6368 32.2184 59.4925 32.0358C60.7425 31.7666 62.31 30.843 62.7044 29.7279C63.0987 28.6123 63.0987 27.6602 62.9831 27.4583C62.8677 27.2564 62.5502 27.1413 62.0696 26.9006C61.589 26.6602 59.2521 25.5062 58.8097 25.3524C58.3768 25.189 57.9635 25.2468 57.6368 25.7084C57.1751 26.3527 56.7233 27.0067 56.3577 27.4008C56.0692 27.7085 55.5978 27.7471 55.2038 27.5834C54.6748 27.3625 53.1942 26.8428 51.3669 25.2177C49.9533 23.9582 48.9917 22.391 48.713 21.9199C48.434 21.4392 48.6843 21.16 48.9052 20.9005C49.1456 20.6023 49.3763 20.3909 49.6167 20.1119C49.8572 19.8332 49.9918 19.6888 50.1457 19.3618C50.3093 19.0445 50.1937 18.7175 50.0784 18.477C49.963 18.2366 49.0015 15.8902 48.6072 14.9384Z" fill="#FEFEFE"/>
</g>
</g>
<defs>
<linearGradient id="paint0_linear_1_2" x1="-86.132" y1="-48.1718" x2="-86.132" y2="-46.9716" gradientUnits="userSpaceOnUse">
<stop stop-color="#727275"/>
<stop offset="0.231" stop-color="#727275"/>
<stop offset="0.522" stop-color="#727275"/>
<stop offset="0.812" stop-color="#727275"/>
<stop offset="1" stop-color="#727275"/>
</linearGradient>
<clipPath id="clip0_1_2">
<rect width="200" height="48" fill="white"/>
</clipPath>
<clipPath id="clip1_1_2">
<rect width="135" height="135" fill="white" transform="translate(33 -44)"/>
</clipPath>
</defs>
</svg>
