<svg width="200" height="48" viewBox="0 0 200 48" fill="none" xmlns="http://www.w3.org/2000/svg">
<g clip-path="url(#clip0_1_55)">
<path d="M78.2249 14.9218C77.7925 13.3239 76.5443 12.0757 74.9465 11.6433C72.0719 10.8594 60.5024 10.8594 60.5024 10.8594C60.5024 10.8594 48.933 10.8831 46.0584 11.6671C44.4605 12.0995 43.2124 13.3477 42.78 14.9455C41.9105 20.0532 41.5732 27.8359 42.8037 32.7392C43.2361 34.3371 44.4843 35.5853 46.0822 36.0176C48.9567 36.8016 60.5262 36.8016 60.5262 36.8016C60.5262 36.8016 72.0957 36.8016 74.9702 36.0176C76.5681 35.5853 77.8163 34.3371 78.2486 32.7392C79.1656 27.6244 79.4483 19.8465 78.2249 14.9218Z" fill="#727275"/>
<path d="M56.8201 29.3895L66.4178 23.8305L56.8201 18.2714V29.3895Z" fill="white"/>
<path d="M153.296 18.3902C154.555 18.3902 155.505 18.6278 156.17 19.0792C156.836 19.5305 157.311 20.2432 157.596 21.2173C157.881 22.1913 158 23.5217 158 25.2321V28.0117H151.894V28.8669L151.989 31.2188C152.06 31.7415 152.179 32.1216 152.369 32.3591C152.559 32.5967 152.868 32.7155 153.272 32.7155C153.818 32.7155 154.199 32.5017 154.389 32.074C154.602 31.6464 154.697 30.9337 154.721 29.9597L157.881 30.1498C157.905 30.2923 157.905 30.4824 157.905 30.7199C157.905 32.2166 157.501 33.3331 156.669 34.0696C155.838 34.8061 154.697 35.1862 153.201 35.1862C151.395 35.1862 150.136 34.616 149.423 33.4994C148.711 32.3829 148.331 30.6249 148.331 28.273V25.3984C148.411 21.3598 149.122 18.4021 153.296 18.3902ZM109.37 18.6991V30.6011C109.37 31.3138 109.441 31.8365 109.607 32.1453C109.945 32.8057 110.819 32.6371 111.294 32.3116C111.568 32.1262 111.79 31.8723 111.936 31.5752V18.6991H115.57V34.9248H112.719L112.411 32.9293H112.339C111.555 34.426 110.391 35.1862 108.847 35.1862C106.47 35.1801 105.889 33.4679 105.751 31.7289L105.742 31.6061C105.723 31.3401 105.715 31.0744 105.711 30.8149V18.6991H109.37ZM128.114 18.6991V30.6011C128.114 31.3138 128.185 31.8365 128.351 32.1453C128.689 32.8057 129.563 32.6371 130.038 32.3116C130.312 32.1262 130.533 31.8723 130.68 31.5752V18.6991H134.314V34.9248H131.463L131.155 32.9293H131.083C130.299 34.426 129.135 35.1862 127.591 35.1862C125.214 35.1801 124.633 33.4679 124.495 31.7289L124.486 31.6061C124.467 31.3401 124.459 31.0744 124.455 30.8149V18.6991H128.114ZM98.8219 18.3902C100.01 18.3902 100.984 18.6278 101.696 19.1267C102.409 19.6256 102.956 20.3858 103.288 21.4311C103.621 22.4764 103.787 23.878 103.787 25.6122V27.9641C103.787 29.6984 103.621 31.0763 103.288 32.1216C102.956 33.1669 102.433 33.9271 101.696 34.426C100.96 34.9011 99.9622 35.1624 98.7268 35.1624C97.444 35.1862 96.4462 34.9248 95.7097 34.4497C94.9733 33.9508 94.4506 33.1906 94.1418 32.1453C93.833 31.1 93.6904 29.7221 93.6904 27.9879V25.636C93.6904 23.9018 93.8567 22.4764 94.2131 21.4311C94.5694 20.362 95.1158 19.6018 95.876 19.1267C96.6363 18.6515 97.6103 18.3902 98.8219 18.3902ZM140.016 11.8809V20.4333H140.04C140.372 19.8156 140.8 19.3167 141.394 18.9366C141.948 18.5636 142.602 18.365 143.271 18.3665C144.15 18.3665 144.815 18.604 145.314 19.0554C145.812 19.5305 146.169 20.267 146.383 21.2885C146.59 22.2781 146.708 23.6468 146.715 25.3728L146.715 25.541V28.1067C146.715 30.5061 146.406 32.2879 145.836 33.4282C145.242 34.5685 144.34 35.1387 143.104 35.1387C142.415 35.1387 141.798 34.9724 141.227 34.6635C140.723 34.3694 140.305 33.948 140.015 33.442L139.968 33.3569H139.897L139.517 34.9011H136.5V11.8809H140.016ZM125.477 12.7124V15.6582H121.866V34.9248H118.302V15.6582H114.668V12.7124H125.477ZM86.3021 12.7124L86.3041 12.7213C86.3389 12.8758 86.8194 15.0112 87.3475 17.499L87.3893 17.6961C87.4102 17.795 87.4312 17.8943 87.4522 17.9941L87.4943 18.1941C87.5014 18.2275 87.5084 18.2609 87.5154 18.2944L87.5576 18.4956C87.5646 18.5291 87.5716 18.5627 87.5786 18.5964L87.6207 18.7983L87.682 19.0935C88.0386 20.8163 88.379 22.5441 88.5828 23.783H88.6778C88.8731 22.6716 89.1565 21.2494 89.4588 19.7975L89.538 19.4182C89.5778 19.2284 89.6178 19.0385 89.6579 18.8492L89.7203 18.5552C90.3018 15.8198 90.8805 13.2645 90.9881 12.7907L90.9951 12.7601C91.0022 12.7287 91.0059 12.7124 91.0059 12.7124H94.6407L90.4358 27.7028V34.9011H86.8485V27.7266H86.8248L82.6674 12.7124H86.3021ZM98.7506 20.9084C98.2517 20.9084 97.9191 21.1698 97.7053 21.7162C97.4915 22.2626 97.3965 23.094 97.3965 24.2581V29.3183C97.3965 30.5061 97.4915 31.3851 97.6815 31.9077C97.8716 32.4304 98.2279 32.6917 98.7506 32.6917C99.2495 32.6917 99.6058 32.4304 99.8196 31.9077C100.033 31.3851 100.128 30.5061 100.128 29.3183V24.2581C100.128 23.094 100.033 22.2388 99.8196 21.7162C99.6058 21.1698 99.2495 20.9084 98.7506 20.9084ZM140.657 21.3836C140.368 21.6508 140.162 21.9807 140.039 22.3928L140.016 22.4764V31.6939C140.31 32.1928 140.729 32.5254 141.465 32.5492C141.845 32.5492 142.154 32.4066 142.392 32.1216C142.629 31.8365 142.795 31.3613 142.89 30.6962C142.982 30.0576 143.029 29.1782 143.033 28.0579L143.033 27.9166V25.8023C143.033 24.5194 142.985 23.5454 142.914 22.8565C142.819 22.1675 142.7 21.6686 142.487 21.3836C142.073 20.7896 141.18 20.7968 140.657 21.3836ZM153.225 20.8372C152.821 20.8609 152.536 20.9797 152.369 21.1935C152.179 21.4311 152.06 21.7874 151.989 22.3101C151.919 22.8223 151.895 24.6121 151.894 24.6835L151.894 25.8498H154.555L154.555 24.8213L154.555 24.8411C154.553 25.2006 154.546 24.6323 154.529 23.9347L154.527 23.841C154.512 23.2279 154.49 22.5442 154.46 22.3101C154.389 21.7637 154.27 21.3836 154.08 21.1698C153.89 20.9559 153.605 20.8372 153.225 20.8372Z" fill="#727275"/>
</g>
<defs>
<clipPath id="clip0_1_55">
<rect width="200" height="48" fill="white"/>
</clipPath>
</defs>
</svg>
